<svg width="34" height="34" viewBox="0 0 34 34" fill="none" xmlns="http://www.w3.org/2000/svg">
<g filter="url(#filter0_d_0_350)">
<path fill-rule="evenodd" clip-rule="evenodd" d="M18.4364 13.0001L29.7025 1.73384C30.0992 1.33718 30.0992 0.69409 29.7025 0.297489C29.3059 -0.0991123 28.6628 -0.0991631 28.2662 0.297489L17 11.5637L5.73383 0.297489C5.33718 -0.0991631 4.69409 -0.0991631 4.29749 0.297489C3.90089 0.694141 3.90084 1.33723 4.29749 1.73384L15.5636 13L4.29749 24.2662C3.90084 24.6629 3.90084 25.306 4.29749 25.7026C4.49579 25.9009 4.75574 26 5.01569 26C5.27563 26 5.53553 25.9009 5.73388 25.7026L17 14.4364L28.2661 25.7026C28.4644 25.9009 28.7244 26 28.9843 26C29.2443 26 29.5042 25.9009 29.7025 25.7026C30.0992 25.3059 30.0992 24.6628 29.7025 24.2662L18.4364 13.0001Z" fill="#363838"/>
</g>
<defs>
<filter id="filter0_d_0_350" x="0" y="0" width="34" height="34" filterUnits="userSpaceOnUse" color-interpolation-filters="sRGB">
<feFlood flood-opacity="0" result="BackgroundImageFix"/>
<feColorMatrix in="SourceAlpha" type="matrix" values="0 0 0 0 0 0 0 0 0 0 0 0 0 0 0 0 0 0 127 0" result="hardAlpha"/>
<feOffset dy="4"/>
<feGaussianBlur stdDeviation="2"/>
<feComposite in2="hardAlpha" operator="out"/>
<feColorMatrix type="matrix" values="0 0 0 0 0 0 0 0 0 0 0 0 0 0 0 0 0 0 0.25 0"/>
<feBlend mode="normal" in2="BackgroundImageFix" result="effect1_dropShadow_0_350"/>
<feBlend mode="normal" in="SourceGraphic" in2="effect1_dropShadow_0_350" result="shape"/>
</filter>
</defs>
</svg>
